# Blender v2.76 (sub 0) OBJ File: 'Project Final.blend'
# www.blender.org
mtllib Project Final b.mtl
o Plane
v -8.918869 0.242829 8.764236
v 8.689970 0.242829 8.764236
v -8.918869 0.242829 -8.844603
v 8.689970 0.242829 -8.844603
v -8.918869 0.242829 -0.040183
v -0.114450 0.242829 8.764236
v 8.689970 0.242829 -0.040183
v -0.114450 0.242829 -8.844603
v -0.114450 0.242829 -0.040183
v -8.918869 0.242829 4.362027
v 4.287760 0.242829 8.764236
v 8.689970 0.242829 -4.442392
v -4.516660 0.242829 -8.844603
v -8.918869 0.242829 -4.442392
v -4.516660 0.242829 8.764236
v 8.689970 0.242829 4.362027
v 4.287760 0.242829 -8.844603
v -0.114450 0.242829 -4.442392
v -0.114450 0.242829 4.362027
v -4.516660 0.242829 -0.040183
v 4.287760 0.242829 -0.040183
v 4.287760 0.242829 4.362027
v -4.516660 0.242829 4.362027
v -4.516660 0.242829 -4.442392
v 4.287760 0.242829 -4.442392
v -8.918869 0.242829 6.563132
v 6.488864 0.242829 8.764236
v 8.689970 0.242829 -6.643497
v -6.717764 0.242829 -8.844603
v -8.918869 0.242829 -2.241287
v -2.315555 0.242829 8.764236
v 8.689970 0.242829 2.160922
v 2.086655 0.242829 -8.844603
v -0.114450 0.242829 -6.643497
v -0.114450 0.242829 2.160922
v -6.717764 0.242829 -0.040183
v 2.086655 0.242829 -0.040183
v -8.918869 0.242829 2.160922
v 2.086655 0.242829 8.764236
v 8.689970 0.242829 -2.241287
v -2.315555 0.242829 -8.844603
v -8.918869 0.242829 -6.643497
v -6.717764 0.242829 8.764236
v 8.689970 0.242829 6.563132
v 6.488864 0.242829 -8.844603
v -0.114450 0.242829 -2.241287
v -0.114450 0.242829 6.563132
v -2.315555 0.242829 -0.040183
v 6.488864 0.242829 -0.040183
v 4.287760 0.242829 2.160922
v 4.287760 0.242829 6.563132
v 2.086655 0.242829 4.362027
v 6.488864 0.242829 4.362027
v -4.516660 0.242829 2.160922
v -4.516660 0.242829 6.563132
v -6.717764 0.242829 4.362027
v -2.315555 0.242829 4.362027
v -4.516660 0.242829 -6.643497
v -4.516660 0.242829 -2.241287
v -6.717764 0.242829 -4.442392
v -2.315555 0.242829 -4.442392
v 4.287760 0.242829 -6.643497
v 4.287760 0.242829 -2.241287
v 2.086655 0.242829 -4.442392
v 6.488864 0.242829 -4.442392
v 6.488864 0.242829 -2.241287
v 2.086655 0.242829 -2.241287
v 2.086655 0.242829 -6.643497
v -2.315555 0.242829 -2.241287
v -6.717764 0.242829 -2.241287
v -6.717764 0.242829 -6.643497
v -2.315555 0.242829 6.563132
v -6.717764 0.242829 6.563132
v -6.717764 0.242829 2.160922
v 6.488864 0.242829 6.563132
v 2.086655 0.242829 6.563132
v 2.086655 0.242829 2.160922
v 6.488864 0.242829 2.160922
v -2.315555 0.242829 2.160922
v -2.315555 0.242829 -6.643497
v 6.488864 0.242829 -6.643497
vt 0.936966 0.738539
vt 0.936966 0.995468
vt 0.680037 0.995468
vt 0.593067 0.738807
vt 0.593067 0.988918
vt 0.342957 0.988918
vt 0.262241 0.981969
vt 0.026027 0.981969
vt 0.026027 0.745756
vt 0.680037 0.738539
vt 0.342957 0.738807
vt 0.262241 0.745756
vn 0.000000 1.000000 0.000000
usemtl Material.001
s off
f 28/1/1 4/2/1 45/3/1
f 34/1/1 8/2/1 41/3/1
f 35/4/1 9/5/1 48/6/1
f 32/4/1 7/5/1 49/6/1
f 50/4/1 21/5/1 37/6/1
f 51/7/1 22/8/1 52/9/1
f 44/7/1 16/8/1 53/9/1
f 54/4/1 20/5/1 36/6/1
f 55/7/1 23/8/1 56/9/1
f 47/7/1 19/8/1 57/9/1
f 58/1/1 13/2/1 29/3/1
f 59/4/1 24/5/1 60/6/1
f 46/4/1 18/5/1 61/6/1
f 62/1/1 17/2/1 33/3/1
f 63/4/1 25/5/1 64/6/1
f 40/4/1 12/5/1 65/6/1
f 66/4/1 65/5/1 25/6/1
f 49/7/1 66/8/1 63/9/1
f 7/7/1 40/8/1 66/9/1
f 67/4/1 64/5/1 18/6/1
f 37/7/1 67/8/1 46/9/1
f 21/7/1 63/8/1 67/9/1
f 68/1/1 33/2/1 8/3/1
f 64/7/1 68/8/1 34/9/1
f 25/7/1 62/8/1 68/9/1
f 69/4/1 61/5/1 24/6/1
f 48/7/1 69/8/1 59/9/1
f 9/7/1 46/8/1 69/9/1
f 70/4/1 60/5/1 14/6/1
f 36/7/1 70/8/1 30/9/1
f 20/7/1 59/8/1 70/9/1
f 71/1/1 29/2/1 3/3/1
f 60/7/1 71/8/1 42/9/1
f 24/7/1 58/8/1 71/9/1
f 72/7/1 57/8/1 23/9/1
f 31/1/1 72/2/1 55/3/1
f 6/1/1 47/2/1 72/3/1
f 73/7/1 56/8/1 10/9/1
f 43/1/1 73/2/1 26/3/1
f 15/1/1 55/2/1 73/3/1
f 74/4/1 36/5/1 5/6/1
f 56/4/1 74/5/1 38/6/1
f 23/4/1 54/5/1 74/6/1
f 75/7/1 53/8/1 22/9/1
f 27/1/1 75/2/1 51/3/1
f 2/1/1 44/2/1 75/3/1
f 76/7/1 52/8/1 19/9/1
f 39/1/1 76/2/1 47/3/1
f 11/1/1 51/2/1 76/3/1
f 77/4/1 37/5/1 9/6/1
f 52/4/1 77/5/1 35/6/1
f 22/4/1 50/5/1 77/6/1
f 78/4/1 49/5/1 21/6/1
f 53/4/1 78/5/1 50/6/1
f 16/4/1 32/5/1 78/6/1
f 79/4/1 48/5/1 20/6/1
f 57/4/1 79/5/1 54/6/1
f 19/4/1 35/5/1 79/6/1
f 80/1/1 41/2/1 13/3/1
f 61/7/1 80/8/1 58/9/1
f 18/7/1 34/8/1 80/9/1
f 81/1/1 45/2/1 17/3/1
f 65/7/1 81/8/1 62/9/1
f 12/7/1 28/8/1 81/9/1
f 81/10/1 28/1/1 45/3/1
f 80/10/1 34/1/1 41/3/1
f 79/11/1 35/4/1 48/6/1
f 78/11/1 32/4/1 49/6/1
f 77/11/1 50/4/1 37/6/1
f 76/12/1 51/7/1 52/9/1
f 75/12/1 44/7/1 53/9/1
f 74/11/1 54/4/1 36/6/1
f 73/12/1 55/7/1 56/9/1
f 72/12/1 47/7/1 57/9/1
f 71/10/1 58/1/1 29/3/1
f 70/11/1 59/4/1 60/6/1
f 69/11/1 46/4/1 61/6/1
f 68/10/1 62/1/1 33/3/1
f 67/11/1 63/4/1 64/6/1
f 66/11/1 40/4/1 65/6/1
f 63/11/1 66/4/1 25/6/1
f 21/12/1 49/7/1 63/9/1
f 49/12/1 7/7/1 66/9/1
f 46/11/1 67/4/1 18/6/1
f 9/12/1 37/7/1 46/9/1
f 37/12/1 21/7/1 67/9/1
f 34/10/1 68/1/1 8/3/1
f 18/12/1 64/7/1 34/9/1
f 64/12/1 25/7/1 68/9/1
f 59/11/1 69/4/1 24/6/1
f 20/12/1 48/7/1 59/9/1
f 48/12/1 9/7/1 69/9/1
f 30/11/1 70/4/1 14/6/1
f 5/12/1 36/7/1 30/9/1
f 36/12/1 20/7/1 70/9/1
f 42/10/1 71/1/1 3/3/1
f 14/12/1 60/7/1 42/9/1
f 60/12/1 24/7/1 71/9/1
f 55/12/1 72/7/1 23/9/1
f 15/10/1 31/1/1 55/3/1
f 31/10/1 6/1/1 72/3/1
f 26/12/1 73/7/1 10/9/1
f 1/10/1 43/1/1 26/3/1
f 43/10/1 15/1/1 73/3/1
f 38/11/1 74/4/1 5/6/1
f 10/11/1 56/4/1 38/6/1
f 56/11/1 23/4/1 74/6/1
f 51/12/1 75/7/1 22/9/1
f 11/10/1 27/1/1 51/3/1
f 27/10/1 2/1/1 75/3/1
f 47/12/1 76/7/1 19/9/1
f 6/10/1 39/1/1 47/3/1
f 39/10/1 11/1/1 76/3/1
f 35/11/1 77/4/1 9/6/1
f 19/11/1 52/4/1 35/6/1
f 52/11/1 22/4/1 77/6/1
f 50/11/1 78/4/1 21/6/1
f 22/11/1 53/4/1 50/6/1
f 53/11/1 16/4/1 78/6/1
f 54/11/1 79/4/1 20/6/1
f 23/11/1 57/4/1 54/6/1
f 57/11/1 19/4/1 79/6/1
f 58/10/1 80/1/1 13/3/1
f 24/12/1 61/7/1 58/9/1
f 61/12/1 18/7/1 80/9/1
f 62/10/1 81/1/1 17/3/1
f 25/12/1 65/7/1 62/9/1
f 65/12/1 12/7/1 81/9/1
