# Blender v2.78 (sub 0) OBJ File: ''
# www.blender.org
mtllib Project Final b.mtl
o Plane.001
v 34.759888 0.971329 -26.573992
v 34.759888 0.971333 -35.378418
v 25.955462 0.971333 -35.378418
v -0.457800 0.971329 -26.573992
v -0.457800 0.971333 -35.378418
v -9.262222 0.971333 -35.378418
v -0.457800 0.971311 8.643690
v -0.457800 0.971316 -0.160732
v -9.262222 0.971316 -0.160732
v 34.759888 0.971311 8.643690
v 34.759888 0.971316 -0.160732
v 25.955462 0.971316 -0.160732
v 17.151043 0.971311 8.643690
v 17.151043 0.971316 -0.160732
v 8.346622 0.971316 -0.160732
v 17.151043 0.971303 26.252531
v 17.151043 0.971308 17.448111
v 8.346622 0.971308 17.448111
v 34.759888 0.971303 26.252531
v 34.759888 0.971308 17.448111
v 25.955462 0.971308 17.448111
v -18.066645 0.971311 8.643690
v -18.066645 0.971316 -0.160732
v -26.871061 0.971316 -0.160732
v -18.066645 0.971303 26.252531
v -18.066645 0.971308 17.448111
v -26.871061 0.971308 17.448111
v -0.457800 0.971303 26.252531
v -0.457800 0.971308 17.448111
v -9.262222 0.971308 17.448111
v -18.066645 0.971329 -26.573992
v -18.066645 0.971333 -35.378418
v -26.871061 0.971333 -35.378418
v -18.066645 0.971321 -8.965150
v -18.066645 0.971324 -17.769571
v -26.871061 0.971324 -17.769571
v -0.457800 0.971321 -8.965150
v -0.457800 0.971324 -17.769571
v -9.262222 0.971324 -17.769571
v 17.151043 0.971329 -26.573992
v 17.151043 0.971333 -35.378418
v 8.346622 0.971333 -35.378418
v 17.151043 0.971321 -8.965150
v 17.151043 0.971324 -17.769571
v 8.346622 0.971324 -17.769571
v 34.759888 0.971321 -8.965150
v 34.759888 0.971324 -17.769571
v 25.955462 0.971324 -17.769571
v 25.955462 0.971321 -8.965150
v 8.346622 0.971321 -8.965150
v 8.346622 0.971329 -26.573992
v -9.262222 0.971321 -8.965150
v -26.871061 0.971321 -8.965150
v -35.675484 0.971324 -17.769571
v -35.675484 0.971321 -8.965150
v -26.871061 0.971329 -26.573992
v -35.675484 0.971333 -35.378418
v -35.675484 0.971329 -26.573992
v -9.262222 0.971303 26.252531
v -9.262222 0.971299 35.056953
v -0.457800 0.971299 35.056953
v -26.871061 0.971303 26.252531
v -35.675484 0.971308 17.448111
v -26.871061 0.971299 35.056953
v -35.675484 0.971303 26.252531
v -18.066645 0.971299 35.056953
v -26.871061 0.971311 8.643690
v -35.675484 0.971316 -0.160732
v -35.675484 0.971311 8.643690
v 25.955462 0.971303 26.252531
v 25.955462 0.971299 35.056953
v 34.759888 0.971299 35.056953
v 8.346622 0.971303 26.252531
v 8.346622 0.971299 35.056953
v 17.151043 0.971299 35.056953
v 8.346622 0.971311 8.643690
v 25.955462 0.971311 8.643690
v -9.262222 0.971311 8.643690
v -9.262222 0.971329 -26.573992
v 25.955462 0.971329 -26.573992
v -35.675484 0.971299 35.056953
vt 0.9370 0.7385
vt 0.9370 0.9955
vt 0.6800 0.9955
vt 0.9370 0.7385
vt 0.9370 0.9955
vt 0.6800 0.9955
vt 0.5931 0.7388
vt 0.5931 0.9889
vt 0.3430 0.9889
vt 0.5931 0.7388
vt 0.5931 0.9889
vt 0.3430 0.9889
vt 0.5931 0.7388
vt 0.5931 0.9889
vt 0.3430 0.9889
vt 0.2622 0.9820
vt 0.0260 0.9820
vt 0.0260 0.7458
vt 0.2622 0.9820
vt 0.0260 0.9820
vt 0.0260 0.7458
vt 0.5931 0.7388
vt 0.5931 0.9889
vt 0.3430 0.9889
vt 0.2622 0.9820
vt 0.0260 0.9820
vt 0.0260 0.7458
vt 0.2622 0.9820
vt 0.0260 0.9820
vt 0.0260 0.7458
vt 0.9370 0.7385
vt 0.9370 0.9955
vt 0.6800 0.9955
vt 0.5931 0.7388
vt 0.5931 0.9889
vt 0.3430 0.9889
vt 0.5931 0.7388
vt 0.5931 0.9889
vt 0.3430 0.9889
vt 0.9370 0.7385
vt 0.9370 0.9955
vt 0.6800 0.9955
vt 0.5931 0.7388
vt 0.5931 0.9889
vt 0.3430 0.9889
vt 0.5931 0.7388
vt 0.5931 0.9889
vt 0.3430 0.9889
vt 0.5931 0.7388
vt 0.5931 0.9889
vt 0.3430 0.9889
vt 0.2622 0.9820
vt 0.0260 0.9820
vt 0.0260 0.7458
vt 0.2622 0.9820
vt 0.0260 0.9820
vt 0.0260 0.7458
vt 0.5931 0.7388
vt 0.5931 0.9889
vt 0.3430 0.9889
vt 0.2622 0.9820
vt 0.0260 0.9820
vt 0.0260 0.7458
vt 0.2622 0.9820
vt 0.0260 0.9820
vt 0.0260 0.7458
vt 0.9370 0.7385
vt 0.9370 0.9955
vt 0.6800 0.9955
vt 0.2622 0.9820
vt 0.0260 0.9820
vt 0.0260 0.7458
vt 0.2622 0.9820
vt 0.0260 0.9820
vt 0.0260 0.7458
vt 0.5931 0.7388
vt 0.5931 0.9889
vt 0.3430 0.9889
vt 0.2622 0.9820
vt 0.0260 0.9820
vt 0.0260 0.7458
vt 0.2622 0.9820
vt 0.0260 0.9820
vt 0.0260 0.7458
vt 0.5931 0.7388
vt 0.5931 0.9889
vt 0.3430 0.9889
vt 0.2622 0.9820
vt 0.0260 0.9820
vt 0.0260 0.7458
vt 0.2622 0.9820
vt 0.0260 0.9820
vt 0.0260 0.7458
vt 0.9370 0.7385
vt 0.9370 0.9955
vt 0.6800 0.9955
vt 0.2622 0.9820
vt 0.0260 0.9820
vt 0.0260 0.7458
vt 0.2622 0.9820
vt 0.0260 0.9820
vt 0.0260 0.7458
vt 0.2622 0.9820
vt 0.0260 0.9820
vt 0.0260 0.7458
vt 0.9370 0.7385
vt 0.9370 0.9955
vt 0.6800 0.9955
vt 0.9370 0.7385
vt 0.9370 0.9955
vt 0.6800 0.9955
vt 0.2622 0.9820
vt 0.0260 0.9820
vt 0.0260 0.7458
vt 0.9370 0.7385
vt 0.9370 0.9955
vt 0.6800 0.9955
vt 0.9370 0.7385
vt 0.9370 0.9955
vt 0.6800 0.9955
vt 0.5931 0.7388
vt 0.5931 0.9889
vt 0.3430 0.9889
vt 0.5931 0.7388
vt 0.5931 0.9889
vt 0.3430 0.9889
vt 0.5931 0.7388
vt 0.5931 0.9889
vt 0.3430 0.9889
vt 0.2622 0.9820
vt 0.0260 0.9820
vt 0.0260 0.7458
vt 0.9370 0.7385
vt 0.9370 0.9955
vt 0.6800 0.9955
vt 0.9370 0.7385
vt 0.9370 0.9955
vt 0.6800 0.9955
vt 0.2622 0.9820
vt 0.0260 0.9820
vt 0.0260 0.7458
vt 0.9370 0.7385
vt 0.9370 0.9955
vt 0.6800 0.9955
vt 0.9370 0.7385
vt 0.9370 0.9955
vt 0.6800 0.9955
vt 0.5931 0.7388
vt 0.5931 0.9889
vt 0.3430 0.9889
vt 0.5931 0.7388
vt 0.5931 0.9889
vt 0.3430 0.9889
vt 0.5931 0.7388
vt 0.5931 0.9889
vt 0.3430 0.9889
vt 0.5931 0.7388
vt 0.5931 0.9889
vt 0.3430 0.9889
vt 0.5931 0.7388
vt 0.5931 0.9889
vt 0.3430 0.9889
vt 0.5931 0.7388
vt 0.5931 0.9889
vt 0.3430 0.9889
vt 0.5931 0.7388
vt 0.5931 0.9889
vt 0.3430 0.9889
vt 0.5931 0.7388
vt 0.5931 0.9889
vt 0.3430 0.9889
vt 0.5931 0.7388
vt 0.5931 0.9889
vt 0.3430 0.9889
vt 0.9370 0.7385
vt 0.9370 0.9955
vt 0.6800 0.9955
vt 0.2622 0.9820
vt 0.0260 0.9820
vt 0.0260 0.7458
vt 0.2622 0.9820
vt 0.0260 0.9820
vt 0.0260 0.7458
vt 0.9370 0.7385
vt 0.9370 0.9955
vt 0.6800 0.9955
vt 0.2622 0.9820
vt 0.0260 0.9820
vt 0.0260 0.7458
vt 0.2622 0.9820
vt 0.0260 0.9820
vt 0.0260 0.7458
vt 0.6800 0.7385
vt 0.6800 0.7385
vt 0.3430 0.7388
vt 0.3430 0.7388
vt 0.3430 0.7388
vt 0.2622 0.7458
vt 0.2622 0.7458
vt 0.3430 0.7388
vt 0.2622 0.7458
vt 0.2622 0.7458
vt 0.6800 0.7385
vt 0.3430 0.7388
vt 0.3430 0.7388
vt 0.6800 0.7385
vt 0.3430 0.7388
vt 0.3430 0.7388
vt 0.3430 0.7388
vt 0.2622 0.7458
vt 0.2622 0.7458
vt 0.3430 0.7388
vt 0.2622 0.7458
vt 0.2622 0.7458
vt 0.6800 0.7385
vt 0.2622 0.7458
vt 0.2622 0.7458
vt 0.3430 0.7388
vt 0.2622 0.7458
vt 0.2622 0.7458
vt 0.3430 0.7388
vt 0.2622 0.7458
vt 0.2622 0.7458
vt 0.6800 0.7385
vt 0.2622 0.7458
vt 0.2622 0.7458
vt 0.2622 0.7458
vt 0.6800 0.7385
vt 0.6800 0.7385
vt 0.2622 0.7458
vt 0.6800 0.7385
vt 0.6800 0.7385
vt 0.3430 0.7388
vt 0.3430 0.7388
vt 0.3430 0.7388
vt 0.2622 0.7458
vt 0.6800 0.7385
vt 0.6800 0.7385
vt 0.2622 0.7458
vt 0.6800 0.7385
vt 0.6800 0.7385
vt 0.3430 0.7388
vt 0.3430 0.7388
vt 0.3430 0.7388
vt 0.3430 0.7388
vt 0.3430 0.7388
vt 0.3430 0.7388
vt 0.3430 0.7388
vt 0.3430 0.7388
vt 0.3430 0.7388
vt 0.6800 0.7385
vt 0.2622 0.7458
vt 0.2622 0.7458
vt 0.6800 0.7385
vt 0.2622 0.7458
vt 0.2622 0.7458
vn 0.0000 1.0000 0.0000
usemtl Material.005
s 1
f 1/1/1 2/2/1 3/3/1
f 4/4/1 5/5/1 6/6/1
f 7/7/1 8/8/1 9/9/1
f 10/10/1 11/11/1 12/12/1
f 13/13/1 14/14/1 15/15/1
f 16/16/1 17/17/1 18/18/1
f 19/19/1 20/20/1 21/21/1
f 22/22/1 23/23/1 24/24/1
f 25/25/1 26/26/1 27/27/1
f 28/28/1 29/29/1 30/30/1
f 31/31/1 32/32/1 33/33/1
f 34/34/1 35/35/1 36/36/1
f 37/37/1 38/38/1 39/39/1
f 40/40/1 41/41/1 42/42/1
f 43/43/1 44/44/1 45/45/1
f 46/46/1 47/47/1 48/48/1
f 49/49/1 48/50/1 44/51/1
f 12/52/1 49/53/1 43/54/1
f 11/55/1 46/56/1 49/57/1
f 50/58/1 45/59/1 38/60/1
f 15/61/1 50/62/1 37/63/1
f 14/64/1 43/65/1 50/66/1
f 51/67/1 42/68/1 5/69/1
f 45/70/1 51/71/1 4/72/1
f 44/73/1 40/74/1 51/75/1
f 52/76/1 39/77/1 35/78/1
f 9/79/1 52/80/1 34/81/1
f 8/82/1 37/83/1 52/84/1
f 53/85/1 36/86/1 54/87/1
f 24/88/1 53/89/1 55/90/1
f 23/91/1 34/92/1 53/93/1
f 56/94/1 33/95/1 57/96/1
f 36/97/1 56/98/1 58/99/1
f 35/100/1 31/101/1 56/102/1
f 59/103/1 30/104/1 26/105/1
f 60/106/1 59/107/1 25/108/1
f 61/109/1 28/110/1 59/111/1
f 62/112/1 27/113/1 63/114/1
f 64/115/1 62/116/1 65/117/1
f 66/118/1 25/119/1 62/120/1
f 67/121/1 24/122/1 68/123/1
f 27/124/1 67/125/1 69/126/1
f 26/127/1 22/128/1 67/129/1
f 70/130/1 21/131/1 17/132/1
f 71/133/1 70/134/1 16/135/1
f 72/136/1 19/137/1 70/138/1
f 73/139/1 18/140/1 29/141/1
f 74/142/1 73/143/1 28/144/1
f 75/145/1 16/146/1 73/147/1
f 76/148/1 15/149/1 8/150/1
f 18/151/1 76/152/1 7/153/1
f 17/154/1 13/155/1 76/156/1
f 77/157/1 12/158/1 14/159/1
f 21/160/1 77/161/1 13/162/1
f 20/163/1 10/164/1 77/165/1
f 78/166/1 9/167/1 23/168/1
f 30/169/1 78/170/1 22/171/1
f 29/172/1 7/173/1 78/174/1
f 79/175/1 6/176/1 32/177/1
f 39/178/1 79/179/1 31/180/1
f 38/181/1 4/182/1 79/183/1
f 80/184/1 3/185/1 41/186/1
f 48/187/1 80/188/1 40/189/1
f 47/190/1 1/191/1 80/192/1
f 80/193/1 1/1/1 3/3/1
f 79/194/1 4/4/1 6/6/1
f 78/195/1 7/7/1 9/9/1
f 77/196/1 10/10/1 12/12/1
f 76/197/1 13/13/1 15/15/1
f 73/198/1 16/16/1 18/18/1
f 70/199/1 19/19/1 21/21/1
f 67/200/1 22/22/1 24/24/1
f 62/201/1 25/25/1 27/27/1
f 59/202/1 28/28/1 30/30/1
f 56/203/1 31/31/1 33/33/1
f 53/204/1 34/34/1 36/36/1
f 52/205/1 37/37/1 39/39/1
f 51/206/1 40/40/1 42/42/1
f 50/207/1 43/43/1 45/45/1
f 49/208/1 46/46/1 48/48/1
f 43/209/1 49/49/1 44/51/1
f 14/210/1 12/52/1 43/54/1
f 12/211/1 11/55/1 49/57/1
f 37/212/1 50/58/1 38/60/1
f 8/213/1 15/61/1 37/63/1
f 15/214/1 14/64/1 50/66/1
f 4/215/1 51/67/1 5/69/1
f 38/216/1 45/70/1 4/72/1
f 45/217/1 44/73/1 51/75/1
f 34/218/1 52/76/1 35/78/1
f 23/219/1 9/79/1 34/81/1
f 9/220/1 8/82/1 52/84/1
f 55/221/1 53/85/1 54/87/1
f 68/222/1 24/88/1 55/90/1
f 24/223/1 23/91/1 53/93/1
f 58/224/1 56/94/1 57/96/1
f 54/225/1 36/97/1 58/99/1
f 36/226/1 35/100/1 56/102/1
f 25/227/1 59/103/1 26/105/1
f 66/228/1 60/106/1 25/108/1
f 60/229/1 61/109/1 59/111/1
f 65/230/1 62/112/1 63/114/1
f 81/231/1 64/115/1 65/117/1
f 64/232/1 66/118/1 62/120/1
f 69/233/1 67/121/1 68/123/1
f 63/234/1 27/124/1 69/126/1
f 27/235/1 26/127/1 67/129/1
f 16/236/1 70/130/1 17/132/1
f 75/237/1 71/133/1 16/135/1
f 71/238/1 72/136/1 70/138/1
f 28/239/1 73/139/1 29/141/1
f 61/240/1 74/142/1 28/144/1
f 74/241/1 75/145/1 73/147/1
f 7/242/1 76/148/1 8/150/1
f 29/243/1 18/151/1 7/153/1
f 18/244/1 17/154/1 76/156/1
f 13/245/1 77/157/1 14/159/1
f 17/246/1 21/160/1 13/162/1
f 21/247/1 20/163/1 77/165/1
f 22/248/1 78/166/1 23/168/1
f 26/249/1 30/169/1 22/171/1
f 30/250/1 29/172/1 78/174/1
f 31/251/1 79/175/1 32/177/1
f 35/252/1 39/178/1 31/180/1
f 39/253/1 38/181/1 79/183/1
f 40/254/1 80/184/1 41/186/1
f 44/255/1 48/187/1 40/189/1
f 48/256/1 47/190/1 80/192/1
